<mxfile host="app.diagrams.net" modified="2025-09-30T11:00:00.000Z" agent="5.0" etag="jkl012" version="28.2.5" type="device">
  <diagram name="UC-04 Auftragsübersicht und Verwaltung" id="bpmn-uc04">
    <mxGraphModel dx="1426" dy="743" grid="1" gridSize="10" guides="1" tooltips="1" connect="1" arrows="1" fold="1" page="1" pageScale="1" pageWidth="1169" pageHeight="827" math="0" shadow="0">
      <root>
        <mxCell id="0" />
        <mxCell id="1" parent="0" />
        
        <mxCell id="pool1" value="Auftragsübersicht und -verwaltung" style="swimlane;html=1;childLayout=stackLayout;resizeParent=1;resizeParentMax=0;horizontal=1;startSize=20;horizontalStack=0;whiteSpace=wrap;" vertex="1" parent="1">
          <mxGeometry x="30" y="40" width="1100" height="650" as="geometry" />
        </mxCell>
        
        <mxCell id="lane1" value="Gutachter/Mitarbeiter" style="swimlane;html=1;startSize=20;horizontal=0;" vertex="1" parent="pool1">
          <mxGeometry y="20" width="1100" height="200" as="geometry" />
        </mxCell>
        
        <mxCell id="start1" value="Aufträge einsehen" style="ellipse;whiteSpace=wrap;html=1;aspect=fixed;fillColor=#d5e8d4;strokeColor=#82b366;" vertex="1" parent="lane1">
          <mxGeometry x="40" y="75" width="50" height="50" as="geometry" />
        </mxCell>
        
        <mxCell id="task1" value="Zur Auftragsübersicht navigieren" style="rounded=1;whiteSpace=wrap;html=1;fillColor=#dae8fc;strokeColor=#6c8ebf;" vertex="1" parent="lane1">
          <mxGeometry x="120" y="80" width="80" height="40" as="geometry" />
        </mxCell>
        
        <mxCell id="task2" value="Filter anwenden" style="rounded=1;whiteSpace=wrap;html=1;fillColor=#dae8fc;strokeColor=#6c8ebf;" vertex="1" parent="lane1">
          <mxGeometry x="330" y="80" width="80" height="40" as="geometry" />
        </mxCell>
        
        <mxCell id="task3" value="Sortierung wählen" style="rounded=1;whiteSpace=wrap;html=1;fillColor=#dae8fc;strokeColor=#6c8ebf;" vertex="1" parent="lane1">
          <mxGeometry x="440" y="80" width="80" height="40" as="geometry" />
        </mxCell>
        
        <mxCell id="task4" value="Nach Auftrag suchen" style="rounded=1;whiteSpace=wrap;html=1;fillColor=#dae8fc;strokeColor=#6c8ebf;" vertex="1" parent="lane1">
          <mxGeometry x="550" y="80" width="80" height="40" as="geometry" />
        </mxCell>
        
        <mxCell id="task5" value="Auftragsstatus ändern" style="rounded=1;whiteSpace=wrap;html=1;fillColor=#dae8fc;strokeColor=#6c8ebf;" vertex="1" parent="lane1">
          <mxGeometry x="660" y="80" width="80" height="40" as="geometry" />
        </mxCell>
        
        <mxCell id="task6" value="Auftragsdetails öffnen" style="rounded=1;whiteSpace=wrap;html=1;fillColor=#dae8fc;strokeColor=#6c8ebf;" vertex="1" parent="lane1">
          <mxGeometry x="770" y="80" width="80" height="40" as="geometry" />
        </mxCell>
        
        <mxCell id="task7" value="Liste aktualisieren" style="rounded=1;whiteSpace=wrap;html=1;fillColor=#dae8fc;strokeColor=#6c8ebf;" vertex="1" parent="lane1">
          <mxGeometry x="880" y="80" width="80" height="40" as="geometry" />
        </mxCell>
        
        <mxCell id="gateway1" value="" style="rhombus;whiteSpace=wrap;html=1;fillColor=#fff2cc;strokeColor=#d6b656;" vertex="1" parent="lane1">
          <mxGeometry x="315" y="140" width="30" height="20" as="geometry" />
        </mxCell>
        
        <mxCell id="task8" value="Hilfe anzeigen" style="rounded=1;whiteSpace=wrap;html=1;fillColor=#fff2cc;strokeColor=#d6b656;" vertex="1" parent="lane1">
          <mxGeometry x="290" y="30" width="80" height="35" as="geometry" />
        </mxCell>
        
        <mxCell id="lane2" value="System" style="swimlane;html=1;startSize=20;horizontal=0;" vertex="1" parent="pool1">
          <mxGeometry y="220" width="1100" height="180" as="geometry" />
        </mxCell>
        
        <mxCell id="task9" value="Aufträge laden" style="rounded=1;whiteSpace=wrap;html=1;fillColor=#e1d5e7;strokeColor=#9673a6;" vertex="1" parent="lane2">
          <mxGeometry x="230" y="30" width="80" height="40" as="geometry" />
        </mxCell>
        
        <mxCell id="task10" value="Daten filtern" style="rounded=1;whiteSpace=wrap;html=1;fillColor=#e1d5e7;strokeColor=#9673a6;" vertex="1" parent="lane2">
          <mxGeometry x="340" y="30" width="80" height="40" as="geometry" />
        </mxCell>
        
        <mxCell id="task11" value="Daten sortieren" style="rounded=1;whiteSpace=wrap;html=1;fillColor=#e1d5e7;strokeColor=#9673a6;" vertex="1" parent="lane2">
          <mxGeometry x="450" y="30" width="80" height="40" as="geometry" />
        </mxCell>
        
        <mxCell id="task12" value="Suche durchführen" style="rounded=1;whiteSpace=wrap;html=1;fillColor=#e1d5e7;strokeColor=#9673a6;" vertex="1" parent="lane2">
          <mxGeometry x="560" y="30" width="80" height="40" as="geometry" />
        </mxCell>
        
        <mxCell id="task13" value="Status aktualisieren" style="rounded=1;whiteSpace=wrap;html=1;fillColor=#e1d5e7;strokeColor=#9673a6;" vertex="1" parent="lane2">
          <mxGeometry x="670" y="30" width="80" height="40" as="geometry" />
        </mxCell>
        
        <mxCell id="task14" value="Details bereitstellen" style="rounded=1;whiteSpace=wrap;html=1;fillColor=#e1d5e7;strokeColor=#9673a6;" vertex="1" parent="lane2">
          <mxGeometry x="780" y="30" width="80" height="40" as="geometry" />
        </mxCell>
        
        <mxCell id="task15" value="Auto-Refresh" style="rounded=1;whiteSpace=wrap;html=1;fillColor=#e1d5e7;strokeColor=#9673a6;" vertex="1" parent="lane2">
          <mxGeometry x="890" y="30" width="80" height="40" as="geometry" />
        </mxCell>
        
        <mxCell id="gateway2" value="" style="rhombus;whiteSpace=wrap;html=1;fillColor=#fff2cc;strokeColor=#d6b656;" vertex="1" parent="lane2">
          <mxGeometry x="255" y="90" width="30" height="20" as="geometry" />
        </mxCell>
        
        <mxCell id="task16" value="Performance-Warnung" style="rounded=1;whiteSpace=wrap;html=1;fillColor=#fff2cc;strokeColor=#d6b656;" vertex="1" parent="lane2">
          <mxGeometry x="170" y="120" width="80" height="40" as="geometry" />
        </mxCell>
        
        <mxCell id="task17" value="Offline-Indikator" style="rounded=1;whiteSpace=wrap;html=1;fillColor=#f8cecc;strokeColor=#b85450;" vertex="1" parent="lane2">
          <mxGeometry x="340" y="120" width="80" height="40" as="geometry" />
        </mxCell>
        
        <mxCell id="lane3" value="Ergebnisse" style="swimlane;html=1;startSize=20;horizontal=0;" vertex="1" parent="pool1">
          <mxGeometry y="400" width="1100" height="150" as="geometry" />
        </mxCell>
        
        <mxCell id="end1" value="Aufträge angezeigt" style="ellipse;whiteSpace=wrap;html=1;aspect=fixed;fillColor=#d5e8d4;strokeColor=#82b366;strokeWidth=3;" vertex="1" parent="lane3">
          <mxGeometry x="245" y="50" width="50" height="50" as="geometry" />
        </mxCell>
        
        <mxCell id="end2" value="Gefilterte Ansicht" style="ellipse;whiteSpace=wrap;html=1;aspect=fixed;fillColor=#d5e8d4;strokeColor=#82b366;strokeWidth=3;" vertex="1" parent="lane3">
          <mxGeometry x="465" y="50" width="50" height="50" as="geometry" />
        </mxCell>
        
        <mxCell id="end3" value="Status geändert" style="ellipse;whiteSpace=wrap;html=1;aspect=fixed;fillColor=#d5e8d4;strokeColor=#82b366;strokeWidth=3;" vertex="1" parent="lane3">
          <mxGeometry x="685" y="50" width="50" height="50" as="geometry" />
        </mxCell>
        
        <mxCell id="end4" value="Details geöffnet" style="ellipse;whiteSpace=wrap;html=1;aspect=fixed;fillColor=#d5e8d4;strokeColor=#82b366;strokeWidth=3;" vertex="1" parent="lane3">
          <mxGeometry x="795" y="50" width="50" height="50" as="geometry" />
        </mxCell>
        
        <mxCell id="end5" value="Keine Aufträge" style="ellipse;whiteSpace=wrap;html=1;aspect=fixed;fillColor=#fff2cc;strokeColor=#d6b656;strokeWidth=3;" vertex="1" parent="lane3">
          <mxGeometry x="305" y="50" width="50" height="50" as="geometry" />
        </mxCell>
        
        <mxCell id="end6" value="Verbindungsfehler" style="ellipse;whiteSpace=wrap;html=1;aspect=fixed;fillColor=#f8cecc;strokeColor=#b85450;strokeWidth=3;" vertex="1" parent="lane3">
          <mxGeometry x="355" y="50" width="50" height="50" as="geometry" />
        </mxCell>
        
        <mxCell id="flow1" value="" style="edgeStyle=orthogonalEdgeStyle;rounded=0;orthogonalLoop=1;jettySize=auto;html=1;" edge="1" parent="pool1" source="start1" target="task1">
          <mxGeometry relative="1" as="geometry" />
        </mxCell>
        
        <mxCell id="flow2" value="" style="edgeStyle=orthogonalEdgeStyle;rounded=0;orthogonalLoop=1;jettySize=auto;html=1;" edge="1" parent="pool1" source="task1" target="task9">
          <mxGeometry relative="1" as="geometry">
            <Array as="points">
              <mxPoint x="160" y="220" />
              <mxPoint x="270" y="220" />
              <mxPoint x="270" y="250" />
            </Array>
          </mxGeometry>
        </mxCell>
        
        <mxCell id="flow3" value="" style="edgeStyle=orthogonalEdgeStyle;rounded=0;orthogonalLoop=1;jettySize=auto;html=1;" edge="1" parent="pool1" source="task9" target="gateway2">
          <mxGeometry relative="1" as="geometry" />
        </mxCell>
        
        <mxCell id="flow4" value="Laden OK" style="edgeStyle=orthogonalEdgeStyle;rounded=0;orthogonalLoop=1;jettySize=auto;html=1;" edge="1" parent="pool1" source="gateway2" target="end1">
          <mxGeometry relative="1" as="geometry">
            <Array as="points">
              <mxPoint x="270" y="450" />
            </Array>
          </mxGeometry>
        </mxCell>
        
        <mxCell id="flow5" value="Zu viele" style="edgeStyle=orthogonalEdgeStyle;rounded=0;orthogonalLoop=1;jettySize=auto;html=1;" edge="1" parent="pool1" source="gateway2" target="task16">
          <mxGeometry relative="1" as="geometry" />
        </mxCell>
        
        <mxCell id="flow6" value="" style="edgeStyle=orthogonalEdgeStyle;rounded=0;orthogonalLoop=1;jettySize=auto;html=1;" edge="1" parent="pool1" source="task2" target="task10">
          <mxGeometry relative="1" as="geometry">
            <Array as="points">
              <mxPoint x="370" y="220" />
              <mxPoint x="380" y="220" />
              <mxPoint x="380" y="250" />
            </Array>
          </mxGeometry>
        </mxCell>
        
        <mxCell id="flow7" value="" style="edgeStyle=orthogonalEdgeStyle;rounded=0;orthogonalLoop=1;jettySize=auto;html=1;" edge="1" parent="pool1" source="task10" target="end2">
          <mxGeometry relative="1" as="geometry">
            <Array as="points">
              <mxPoint x="380" y="400" />
              <mxPoint x="490" y="400" />
              <mxPoint x="490" y="475" />
            </Array>
          </mxGeometry>
        </mxCell>
        
        <mxCell id="flow8" value="" style="edgeStyle=orthogonalEdgeStyle;rounded=0;orthogonalLoop=1;jettySize=auto;html=1;" edge="1" parent="pool1" source="task3" target="task11">
          <mxGeometry relative="1" as="geometry">
            <Array as="points">
              <mxPoint x="480" y="220" />
              <mxPoint x="490" y="220" />
              <mxPoint x="490" y="250" />
            </Array>
          </mxGeometry>
        </mxCell>
        
        <mxCell id="flow9" value="" style="edgeStyle=orthogonalEdgeStyle;rounded=0;orthogonalLoop=1;jettySize=auto;html=1;" edge="1" parent="pool1" source="task11" target="end2">
          <mxGeometry relative="1" as="geometry">
            <Array as="points">
              <mxPoint x="490" y="400" />
              <mxPoint x="490" y="475" />
            </Array>
          </mxGeometry>
        </mxCell>
        
        <mxCell id="flow10" value="" style="edgeStyle=orthogonalEdgeStyle;rounded=0;orthogonalLoop=1;jettySize=auto;html=1;" edge="1" parent="pool1" source="task4" target="task12">
          <mxGeometry relative="1" as="geometry">
            <Array as="points">
              <mxPoint x="590" y="220" />
              <mxPoint x="600" y="220" />
              <mxPoint x="600" y="250" />
            </Array>
          </mxGeometry>
        </mxCell>
        
        <mxCell id="flow11" value="" style="edgeStyle=orthogonalEdgeStyle;rounded=0;orthogonalLoop=1;jettySize=auto;html=1;" edge="1" parent="pool1" source="task12" target="end2">
          <mxGeometry relative="1" as="geometry">
            <Array as="points">
              <mxPoint x="600" y="400" />
              <mxPoint x="490" y="400" />
              <mxPoint x="490" y="475" />
            </Array>
          </mxGeometry>
        </mxCell>
        
        <mxCell id="flow12" value="" style="edgeStyle=orthogonalEdgeStyle;rounded=0;orthogonalLoop=1;jettySize=auto;html=1;" edge="1" parent="pool1" source="task5" target="task13">
          <mxGeometry relative="1" as="geometry">
            <Array as="points">
              <mxPoint x="700" y="220" />
              <mxPoint x="710" y="220" />
              <mxPoint x="710" y="250" />
            </Array>
          </mxGeometry>
        </mxCell>
        
        <mxCell id="flow13" value="" style="edgeStyle=orthogonalEdgeStyle;rounded=0;orthogonalLoop=1;jettySize=auto;html=1;" edge="1" parent="pool1" source="task13" target="end3">
          <mxGeometry relative="1" as="geometry">
            <Array as="points">
              <mxPoint x="710" y="475" />
            </Array>
          </mxGeometry>
        </mxCell>
        
        <mxCell id="flow14" value="" style="edgeStyle=orthogonalEdgeStyle;rounded=0;orthogonalLoop=1;jettySize=auto;html=1;" edge="1" parent="pool1" source="task6" target="task14">
          <mxGeometry relative="1" as="geometry">
            <Array as="points">
              <mxPoint x="810" y="220" />
              <mxPoint x="820" y="220" />
              <mxPoint x="820" y="250" />
            </Array>
          </mxGeometry>
        </mxCell>
        
        <mxCell id="flow15" value="" style="edgeStyle=orthogonalEdgeStyle;rounded=0;orthogonalLoop=1;jettySize=auto;html=1;" edge="1" parent="pool1" source="task14" target="end4">
          <mxGeometry relative="1" as="geometry">
            <Array as="points">
              <mxPoint x="820" y="475" />
            </Array>
          </mxGeometry>
        </mxCell>
        
        <mxCell id="flow16" value="" style="edgeStyle=orthogonalEdgeStyle;rounded=0;orthogonalLoop=1;jettySize=auto;html=1;" edge="1" parent="pool1" source="task7" target="task15">
          <mxGeometry relative="1" as="geometry">
            <Array as="points">
              <mxPoint x="920" y="220" />
              <mxPoint x="930" y="220" />
              <mxPoint x="930" y="250" />
            </Array>
          </mxGeometry>
        </mxCell>
        
        <mxCell id="flow17" value="" style="edgeStyle=orthogonalEdgeStyle;rounded=0;orthogonalLoop=1;jettySize=auto;html=1;" edge="1" parent="pool1" source="task15" target="end1">
          <mxGeometry relative="1" as="geometry">
            <Array as="points">
              <mxPoint x="930" y="400" />
              <mxPoint x="270" y="400" />
              <mxPoint x="270" y="475" />
            </Array>
          </mxGeometry>
        </mxCell>
        
        <mxCell id="flow18" value="" style="edgeStyle=orthogonalEdgeStyle;rounded=0;orthogonalLoop=1;jettySize=auto;html=1;" edge="1" parent="pool1" source="task1" target="gateway1">
          <mxGeometry relative="1" as="geometry">
            <Array as="points">
              <mxPoint x="160" y="160" />
              <mxPoint x="330" y="160" />
            </Array>
          </mxGeometry>
        </mxCell>
        
        <mxCell id="flow19" value="Keine Aufträge" style="edgeStyle=orthogonalEdgeStyle;rounded=0;orthogonalLoop=1;jettySize=auto;html=1;" edge="1" parent="pool1" source="gateway1" target="end5">
          <mxGeometry relative="1" as="geometry">
            <Array as="points">
              <mxPoint x="330" y="475" />
            </Array>
          </mxGeometry>
        </mxCell>
        
        <mxCell id="flow20" value="Hilfe" style="edgeStyle=orthogonalEdgeStyle;rounded=0;orthogonalLoop=1;jettySize=auto;html=1;" edge="1" parent="pool1" source="gateway1" target="task8">
          <mxGeometry relative="1" as="geometry" />
        </mxCell>
        
        <mxCell id="flow21" value="" style="edgeStyle=orthogonalEdgeStyle;rounded=0;orthogonalLoop=1;jettySize=auto;html=1;" edge="1" parent="pool1" source="gateway2" target="task17">
          <mxGeometry relative="1" as="geometry">
            <Array as="points">
              <mxPoint x="300" y="310" />
              <mxPoint x="380" y="310" />
              <mxPoint x="380" y="340" />
            </Array>
          </mxGeometry>
        </mxCell>
        
        <mxCell id="flow22" value="" style="edgeStyle=orthogonalEdgeStyle;rounded=0;orthogonalLoop=1;jettySize=auto;html=1;" edge="1" parent="pool1" source="task17" target="end6">
          <mxGeometry relative="1" as="geometry">
            <Array as="points">
              <mxPoint x="380" y="475" />
            </Array>
          </mxGeometry>
        </mxCell>
        
      </root>
    </mxGraphModel>
  </diagram>
</mxfile>
